<mxfile host="app.diagrams.net" modified="2023-11-04T12:29:44.334Z" agent="Mozilla/5.0 (Windows NT 6.3; Win64; x64) AppleWebKit/537.36 (KHTML, like Gecko) Chrome/109.0.0.0 Safari/537.36" version="22.0.8" etag="nF7b6rNy0N0ekJZkxjZt" type="google">
  <diagram name="Strona-1" id="TpTim8SVZ_8peDlJWcs7">
    <mxGraphModel>
      <root>
        <mxCell id="0" />
        <mxCell id="1" parent="0" />
      </root>
    </mxGraphModel>
  </diagram>
</mxfile>
